<svg id="Layer_1" height="512" viewBox="0 0 24 24" width="512" xmlns="http://www.w3.org/2000/svg" data-name="Layer 1"><path d="m10.75 4v4a2.748 2.748 0 0 1 -2.75 2.75h-4a2.748 2.748 0 0 1 -2.6-1.86 2.64 2.64 0 0 1 -.15-.89v-4a2.748 2.748 0 0 1 2.75-2.75h4a2.64 2.64 0 0 1 .89.15 2.748 2.748 0 0 1 1.86 2.6z" fill="#1494eb"/><path d="m22.75 6a4.748 4.748 0 0 1 -8.62 2.75 4.7 4.7 0 0 1 -.88-2.75 4.754 4.754 0 0 1 4.75-4.75 4.756 4.756 0 0 1 4.75 4.75z" fill="#ffcb03"/><path d="m8.89 1.4a9 9 0 0 1 -7.49 7.49 2.64 2.64 0 0 1 -.15-.89v-4a2.748 2.748 0 0 1 2.75-2.75h4a2.64 2.64 0 0 1 .89.15z" fill="#46bcfc"/><path d="m20.75 2.13a9.05 9.05 0 0 1 -6.62 6.62 4.7 4.7 0 0 1 -.88-2.75 4.754 4.754 0 0 1 4.75-4.75 4.7 4.7 0 0 1 2.75.88z" fill="#ffd869"/><path d="m22.75 16v4a2.748 2.748 0 0 1 -2.75 2.75h-4a2.748 2.748 0 0 1 -2.75-2.75v-4a2.748 2.748 0 0 1 2.75-2.75h4a2.611 2.611 0 0 1 .69.09 2.737 2.737 0 0 1 2.06 2.66z" fill="#1494eb"/><path d="m10.75 16v4a2.748 2.748 0 0 1 -2.75 2.75h-4a2.748 2.748 0 0 1 -2.75-2.75v-4a2.748 2.748 0 0 1 2.75-2.75h4a2.611 2.611 0 0 1 .69.09 2.737 2.737 0 0 1 2.06 2.66z" fill="#1494eb"/><g fill="#46bcfc"><path d="m8.69 13.34a9 9 0 0 1 -7.44 6.57v-3.91a2.748 2.748 0 0 1 2.75-2.75h4a2.611 2.611 0 0 1 .69.09z"/><path d="m20.69 13.34a9 9 0 0 1 -7.44 6.57v-3.91a2.748 2.748 0 0 1 2.75-2.75h4a2.611 2.611 0 0 1 .69.09z"/></g></svg>