<svg id="Capa_1" enable-background="new 0 0 502 502" height="512" viewBox="0 0 502 502" width="512" xmlns="http://www.w3.org/2000/svg" xmlns:xlink="http://www.w3.org/1999/xlink"><linearGradient id="SVGID_1_" gradientUnits="userSpaceOnUse" x1="234.041" x2="234.041" y1="217.019" y2="-19.715"><stop offset="0" stop-color="#f4d952"/><stop offset="1" stop-color="#f9edaf"/></linearGradient><linearGradient id="SVGID_2_" gradientUnits="userSpaceOnUse" x1="234.041" x2="234.041" y1="164.86" y2="493.508"><stop offset="0" stop-color="#4e5660"/><stop offset="1" stop-color="#64768d"/></linearGradient><linearGradient id="SVGID_3_" gradientUnits="userSpaceOnUse" x1="50.454" x2="377.394" y1="111.635" y2="111.635"><stop offset="0" stop-color="#4bb370"/><stop offset=".199" stop-color="#4eb575"/><stop offset=".4501" stop-color="#56bc85"/><stop offset=".7278" stop-color="#64c89f"/><stop offset="1" stop-color="#76d6bf"/></linearGradient><linearGradient id="lg1"><stop offset="0" stop-color="#d4dbdb"/><stop offset="1" stop-color="#f3f3f3"/></linearGradient><linearGradient id="SVGID_4_" gradientUnits="userSpaceOnUse" x1="142.295" x2="142.295" xlink:href="#lg1" y1="379.674" y2="340.507"/><linearGradient id="SVGID_5_" gradientUnits="userSpaceOnUse" x1="234.041" x2="234.041" xlink:href="#lg1" y1="379.674" y2="340.507"/><linearGradient id="SVGID_6_" gradientUnits="userSpaceOnUse" x1="325.787" x2="325.787" xlink:href="#lg1" y1="379.674" y2="340.507"/><linearGradient id="SVGID_7_" gradientUnits="userSpaceOnUse" x1="142.295" x2="142.295" xlink:href="#lg1" y1="294.042" y2="254.876"/><linearGradient id="SVGID_8_" gradientUnits="userSpaceOnUse" x1="234.041" x2="234.041" xlink:href="#lg1" y1="294.042" y2="254.876"/><linearGradient id="SVGID_9_" gradientUnits="userSpaceOnUse" x1="325.787" x2="325.787" xlink:href="#lg1" y1="294.042" y2="254.876"/><linearGradient id="SVGID_10_" gradientUnits="userSpaceOnUse" x1="433.981" x2="433.981" y1="248.693" y2="157.372"><stop offset="0" stop-color="#ec6f80"/><stop offset="1" stop-color="#eca0aa"/></linearGradient><linearGradient id="SVGID_11_" gradientUnits="userSpaceOnUse" x1="68.019" x2="68.019" y1="453" y2="361.679"><stop offset="0" stop-color="#74d2e8"/><stop offset="1" stop-color="#baeaf5"/></linearGradient><g><path d="m414.421 210.598-180.38 18.607-180.38-18.607v-133.805c0-37.623 30.499-68.122 68.122-68.122h224.516c37.623 0 68.122 30.499 68.122 68.122z" fill="url(#SVGID_1_)"/><path d="m414.421 210.598h-360.76v174.303c0 37.623 30.499 68.122 68.122 68.122h224.516c37.623 0 68.122-30.499 68.122-68.122z" fill="url(#SVGID_2_)"/><path d="m139.805 351.487c19.255 18.729 31.233 44.904 31.233 73.823 0 9.598-1.324 18.892-3.791 27.713h-45.465l-18.927-56.053z" fill="#424e5e"/><path d="m342.468 167.468h-216.854c-12.975 0-23.494-10.519-23.494-23.494v-64.678c0-12.975 10.519-23.494 23.494-23.494h216.854c12.975 0 23.494 10.519 23.494 23.494v64.679c0 12.975-10.519 23.493-23.494 23.493z" fill="url(#SVGID_3_)"/><g><path d="m156.695 338.625h-28.8c-10.398 0-18.826 8.429-18.826 18.826v20.693c0 10.397 8.429 18.826 18.826 18.826h1.955s17.406-7.9 36.425-2.641c5.528-3.28 9.246-9.291 9.246-16.185v-20.693c0-10.397-8.429-18.826-18.826-18.826z" fill="url(#SVGID_4_)"/><path d="m248.441 396.971h-28.8c-10.397 0-18.826-8.429-18.826-18.826v-20.693c0-10.397 8.429-18.826 18.826-18.826h28.8c10.397 0 18.826 8.429 18.826 18.826v20.693c0 10.397-8.429 18.826-18.826 18.826z" fill="url(#SVGID_5_)"/><path d="m340.186 396.971h-28.8c-10.397 0-18.826-8.429-18.826-18.826v-20.693c0-10.397 8.429-18.826 18.826-18.826h28.8c10.397 0 18.826 8.429 18.826 18.826v20.693c.001 10.397-8.428 18.826-18.826 18.826z" fill="url(#SVGID_6_)"/><path d="m156.695 311.339h-28.8c-10.398 0-18.826-8.429-18.826-18.826v-20.693c0-10.397 8.429-18.826 18.826-18.826h28.8c10.398 0 18.826 8.429 18.826 18.826v20.693c0 10.397-8.429 18.826-18.826 18.826z" fill="url(#SVGID_7_)"/><path d="m248.441 311.339h-28.8c-10.397 0-18.826-8.429-18.826-18.826v-20.693c0-10.397 8.429-18.826 18.826-18.826h28.8c10.397 0 18.826 8.429 18.826 18.826v20.693c0 10.397-8.429 18.826-18.826 18.826z" fill="url(#SVGID_8_)"/><path d="m340.186 311.339h-28.8c-10.397 0-18.826-8.429-18.826-18.826v-20.693c0-10.397 8.429-18.826 18.826-18.826h28.8c10.397 0 18.826 8.429 18.826 18.826v20.693c.001 10.397-8.428 18.826-18.826 18.826z" fill="url(#SVGID_9_)"/></g><circle cx="433.981" cy="221.003" fill="url(#SVGID_10_)" r="68.019"/><path d="m459.492 210.7h-15.207v-15.208c0-5.523-4.477-10-10-10s-10 4.477-10 10v15.208h-15.815c-5.523 0-10 4.477-10 10s4.477 10 10 10h15.814v15.814c0 5.523 4.477 10 10 10s10-4.477 10-10v-15.814h15.207c5.523 0 10-4.477 10-10 .001-5.523-4.476-10-9.999-10z" fill="#fffde3"/><path d="m130.281 368c-6.703 5.536-8.251 15.112-3.795 22.577 1.231 2.062 2.355 4.195 3.364 6.394h26.844c3.503 0 6.771-.974 9.58-2.641-2.431-7.693-5.745-14.995-9.82-21.791-5.515-9.199-17.903-11.369-26.173-4.539z" fill="#c2c8cf"/><circle cx="68.019" cy="425.31" fill="url(#SVGID_11_)" r="68.019"/><path d="m93.53 435.007h-51.022c-5.523 0-10-4.477-10-10s4.477-10 10-10h51.022c5.523 0 10 4.477 10 10s-4.477 10-10 10z" fill="#fffde3"/><g><ellipse cx="146.155" cy="135.578" fill="#eaadcd" rx="14.936" ry="12.003"/><ellipse cx="321.926" cy="135.578" fill="#eaadcd" rx="14.936" ry="12.003"/><circle cx="171.762" cy="105.961" fill="#fff" r="29.618"/><ellipse cx="183.728" cy="105.961" fill="#3b3b44" rx="17.652" ry="17.652" transform="matrix(.241 -.971 .971 .241 36.658 258.781)"/><circle cx="296.319" cy="105.961" fill="#fff" r="29.618"/><g fill="#3b3b44"><ellipse cx="308.223" cy="105.961" rx="17.652" ry="17.652" transform="matrix(.809 -.588 .588 .809 -3.359 201.596)"/><ellipse cx="234.041" cy="128.413" rx="13.252" ry="17.352"/></g></g></g></svg>