<svg id="Capa_1" enable-background="new 0 0 502 502" height="512" viewBox="0 0 502 502" width="512" xmlns="http://www.w3.org/2000/svg" xmlns:xlink="http://www.w3.org/1999/xlink"><linearGradient id="lg1"><stop offset="0" stop-color="#d4dbdb"/><stop offset="1" stop-color="#f3f3f3"/></linearGradient><linearGradient id="SVGID_1_" gradientUnits="userSpaceOnUse" x1="236.645" x2="236.645" xlink:href="#lg1" y1="417.979" y2="342.482"/><linearGradient id="lg2"><stop offset="0" stop-color="#4e5660"/><stop offset="1" stop-color="#64768d"/></linearGradient><linearGradient id="SVGID_2_" gradientUnits="userSpaceOnUse" x1="236.645" x2="236.645" xlink:href="#lg2" y1="354.004" y2="30.279"/><linearGradient id="SVGID_3_" gradientUnits="userSpaceOnUse" x1="236.645" x2="236.645" y1="330.099" y2="123.452"><stop offset="0" stop-color="#74d2e8"/><stop offset="1" stop-color="#baeaf5"/></linearGradient><linearGradient id="SVGID_4_" gradientUnits="userSpaceOnUse" x1="236.645" x2="236.645" xlink:href="#lg1" y1="199.401" y2="83.244"/><linearGradient id="lg3"><stop offset="0" stop-color="#ec6f80"/><stop offset="1" stop-color="#eca0aa"/></linearGradient><linearGradient id="SVGID_5_" gradientUnits="userSpaceOnUse" x1="82.537" x2="82.537" xlink:href="#lg3" y1="199.401" y2="83.244"/><linearGradient id="SVGID_6_" gradientTransform="matrix(-1 0 0 1 112.497 0)" gradientUnits="userSpaceOnUse" x1="-278.255" x2="-278.255" xlink:href="#lg3" y1="199.401" y2="83.244"/><linearGradient id="SVGID_7_" gradientUnits="userSpaceOnUse" x1="119.577" x2="366.404" xlink:href="#lg2" y1="439.191" y2="439.191"/><linearGradient id="SVGID_8_" gradientUnits="userSpaceOnUse" x1="399.978" x2="482.409" xlink:href="#lg2" y1="439.191" y2="439.191"/><g><path d="m166.165 329.04h140.959v82.676h-140.959z" fill="url(#SVGID_1_)"/><path d="m74.155 354.511c-28.841 0-52.221-23.38-52.221-52.221v-218.631c0-28.841 23.38-52.221 52.221-52.221h324.978c28.841 0 52.222 23.38 52.222 52.222v218.629c0 28.841-23.38 52.221-52.221 52.221h-324.979z" fill="url(#SVGID_2_)"/><path d="m21.934 120.839v98.171c13.291 6.836 28.295 10.572 44.067 10.572 33.996 0 65.457-14.728 87.35-38.778 20.73 24.707 50.788 38.778 83.294 38.778v-108.743z" fill="#424e5e"/><path d="m392.012 312.958h-310.734c-9.826 0-17.791-7.965-17.791-17.791v-190.716c0-9.825 7.965-17.791 17.791-17.791h310.734c9.826 0 17.791 7.965 17.791 17.791v190.716c0 9.826-7.966 17.791-17.791 17.791z" fill="url(#SVGID_3_)"/><path d="m365.684 206.179c3.949-7.005 1.609-15.809-5.202-20.084-18.151-11.396-32.028-29.32-38.048-51.068l-10.991-39.702h-247.956v134.215c.837.021 1.673.044 2.514.044 33.996 0 65.457-14.728 87.35-38.778 20.73 24.708 50.788 38.778 83.294 38.778 32.505 0 62.563-14.071 83.293-38.778 7.31 8.03 15.688 15.018 24.87 20.766 7.194 4.503 16.708 2.001 20.876-5.393z" fill="#17c5d9"/><g><path d="m236.645 199.583c-52.125 0-89.911-49.667-76.005-99.903l4.435-16.02h143.14l4.435 16.02c13.906 50.235-23.88 99.903-76.005 99.903z" fill="url(#SVGID_4_)"/><path d="m66.001 199.583c-55.799 0-86.327-65.035-50.678-107.961l6.612-7.962h143.14l-14.219 51.366c-10.56 38.146-45.275 64.557-84.855 64.557z" fill="url(#SVGID_5_)"/><path d="m407.289 199.583c55.799 0 86.327-65.035 50.678-107.961l-6.612-7.962h-143.14l14.219 51.366c10.56 38.146 45.275 64.557 84.855 64.557z" fill="url(#SVGID_6_)"/></g><path d="m340.229 470.562h-207.168c-15.008 0-26.076-14.019-22.594-28.617l1.616-6.774c3.825-16.035 18.155-27.349 34.64-27.349h179.845c16.485 0 30.815 11.314 34.64 27.349l1.616 6.774c3.481 14.598-7.587 28.617-22.595 28.617z" fill="url(#SVGID_7_)"/><path d="m456.059 407.821h-3.804c-21.1 0-39.589 14.123-45.14 34.48-3.881 14.233 6.834 28.261 21.586 28.261h50.911c14.753 0 25.467-14.027 21.586-28.261-5.55-20.357-24.039-34.48-45.139-34.48z" fill="url(#SVGID_8_)"/><g><ellipse cx="148.759" cy="283.616" fill="#eaadcd" rx="14.936" ry="12.003"/><ellipse cx="324.53" cy="283.616" fill="#eaadcd" rx="14.936" ry="12.003"/><path d="m174.366 257.964c7.183 0 13.813 1.589 19.159 4.273 4.544 2.281 9.962-.802 10.365-5.87.113-1.423.125-2.875.029-4.348-.991-15.146-13.602-27.24-28.775-27.629-16.713-.428-30.396 12.992-30.396 29.608 0 .843.035 1.678.105 2.503.422 5.01 5.857 7.995 10.349 5.738 5.348-2.684 11.979-4.275 19.164-4.275z" fill="#fff"/><path d="m236.645 293.803c-6.447 0-12.894-2.155-18.273-6.465-4.989-3.997-5.794-11.282-1.797-16.271 3.997-4.99 11.282-5.793 16.271-1.797 2.237 1.792 5.361 1.792 7.598 0 4.988-3.997 12.273-3.193 16.271 1.797 3.997 4.989 3.193 12.274-1.797 16.271-5.379 4.31-11.826 6.465-18.273 6.465z" fill="#3b3b44"/><path d="m174.366 257.964c5.926 0 11.473 1.082 16.237 2.967.911-2.129 1.415-4.47 1.415-6.933 0-9.749-7.903-17.652-17.652-17.652s-17.652 7.903-17.652 17.652c0 2.463.504 4.803 1.415 6.933 4.764-1.885 10.312-2.967 16.237-2.967z" fill="#3b3b44"/><path d="m298.924 257.964c7.183 0 13.813 1.589 19.159 4.273 4.544 2.281 9.962-.802 10.365-5.87.113-1.423.126-2.875.029-4.348-.991-15.146-13.602-27.24-28.775-27.629-16.713-.428-30.396 12.992-30.396 29.608 0 .843.035 1.678.105 2.503.422 5.01 5.856 7.995 10.349 5.738 5.347-2.684 11.979-4.275 19.164-4.275z" fill="#fff"/><path d="m298.924 257.964c5.926 0 11.473 1.082 16.237 2.967.911-2.129 1.415-4.47 1.415-6.933 0-9.749-7.903-17.652-17.652-17.652s-17.652 7.903-17.652 17.652c0 2.463.504 4.803 1.415 6.933 4.763-1.885 10.311-2.967 16.237-2.967z" fill="#3b3b44"/></g><g fill="#8196ab"><path d="m333.004 452.682h-38.517c-6.352 0-11.5-5.149-11.5-11.5s5.148-11.5 11.5-11.5h38.517c6.352 0 11.5 5.149 11.5 11.5s-5.149 11.5-11.5 11.5z"/><path d="m250.731 452.682h-6.463c-6.352 0-11.5-5.149-11.5-11.5s5.148-11.5 11.5-11.5h6.463c6.352 0 11.5 5.149 11.5 11.5s-5.148 11.5-11.5 11.5z"/></g></g></svg>