<svg id="Capa_1" enable-background="new 0 0 502 502" height="512" viewBox="0 0 502 502" width="512" xmlns="http://www.w3.org/2000/svg" xmlns:xlink="http://www.w3.org/1999/xlink"><linearGradient id="SVGID_1_" gradientUnits="userSpaceOnUse" x1="116.567" x2="116.567" y1="222.112" y2="342.826"><stop offset="0" stop-color="#43b36b"/><stop offset=".196" stop-color="#46b570"/><stop offset=".4433" stop-color="#4dbc80"/><stop offset=".7181" stop-color="#5ac79a"/><stop offset="1" stop-color="#6ad6bc"/></linearGradient><linearGradient id="SVGID_2_" gradientUnits="userSpaceOnUse" x1="0" x2="233.133" y1="148.871" y2="148.871"><stop offset="0" stop-color="#64cd89"/><stop offset=".2218" stop-color="#66cf8e"/><stop offset=".5016" stop-color="#6dd39e"/><stop offset=".8113" stop-color="#77dbb8"/><stop offset="1" stop-color="#7fe1cb"/></linearGradient><linearGradient id="SVGID_3_" gradientUnits="userSpaceOnUse" x1="385.434" x2="385.434" y1="232.932" y2="353.646"><stop offset="0" stop-color="#68d0e8"/><stop offset="1" stop-color="#a7e7f5"/></linearGradient><linearGradient id="SVGID_4_" gradientUnits="userSpaceOnUse" x1="268.867" x2="502" y1="148.871" y2="148.871"><stop offset="0" stop-color="#8fd5e6"/><stop offset="1" stop-color="#b0e4f0"/></linearGradient><linearGradient id="SVGID_5_" gradientUnits="userSpaceOnUse" x1="251" x2="251" y1="357.05" y2="477.764"><stop offset="0" stop-color="#f4c128"/><stop offset="1" stop-color="#f9dd89"/></linearGradient><linearGradient id="SVGID_6_" gradientUnits="userSpaceOnUse" x1="134.433" x2="367.567" y1="272.99" y2="272.99"><stop offset="0" stop-color="#f4d84a"/><stop offset="1" stop-color="#f9ea9d"/></linearGradient><g><path d="m199.195 334.765c13.603 0 23.619-12.791 20.3-25.983-11.589-46.054-53.277-80.149-102.928-80.149s-91.338 34.094-102.928 80.149c-3.32 13.191 6.697 25.983 20.3 25.983z" fill="url(#SVGID_1_)"/><path d="m219.454 308.622c-6.96-27.476-24.643-50.673-48.328-64.898-16.279 7.078-34.846 10.901-54.559 10.901-12.213 0-23.985-1.468-35.046-4.268-6.255-1.583-12.826.919-16.344 6.328-5.599 8.609-1.079 20.176 8.874 22.706 9.86 2.507 20.118 4.136 30.64 4.834 1.085 18.035 5.745 35.109 13.645 50.539h80.86c13.67.001 23.615-12.889 20.258-26.142z" fill="#00a663"/><path d="m233.133 151.871c0-62.051-52.189-108.754-116.567-108.754-64.377 0-116.566 46.703-116.566 108.754s52.189 102.755 116.567 102.755c64.378-.001 116.566-40.704 116.566-102.755z" fill="url(#SVGID_2_)"/><g><ellipse cx="28.681" cy="167.135" fill="#efb1d2" rx="14.936" ry="12.003"/><ellipse cx="204.452" cy="167.135" fill="#efb1d2" rx="14.936" ry="12.003"/><circle cx="54.288" cy="137.517" fill="#fff" r="29.618"/><circle cx="178.845" cy="137.517" fill="#fff" r="29.618"/><path d="m64.071 147.947c-2.647.001-5.214-1.404-6.579-3.888-.94-1.71-2.554-1.896-3.204-1.896s-2.264.186-3.204 1.896c-1.995 3.63-6.554 4.954-10.186 2.959-3.63-1.996-4.954-6.556-2.959-10.186 3.278-5.964 9.543-9.669 16.349-9.669s13.07 3.705 16.349 9.669c1.995 3.63.671 8.19-2.959 10.186-1.147.63-2.385.929-3.607.929z" fill="#353544"/><path d="m188.629 147.947c-2.648.001-5.214-1.404-6.579-3.888-.94-1.711-2.555-1.896-3.205-1.896-.649.001-2.263.186-3.203 1.895-1.995 3.631-6.557 4.955-10.185 2.96-3.63-1.995-4.955-6.555-2.96-10.185 3.277-5.964 9.542-9.669 16.348-9.67 6.806 0 13.07 3.705 16.35 9.669 1.995 3.63.671 8.19-2.959 10.186-1.147.63-2.385.929-3.607.929z" fill="#353544"/><g><path d="m128.238 177.321h-23.342c-6.508 0-11.784-5.276-11.784-11.784 0-6.508 5.276-11.784 11.784-11.784h23.342c6.508 0 11.784 5.276 11.784 11.784 0 6.508-5.276 11.784-11.784 11.784z" fill="#353544"/></g></g><path d="m468.061 334.765c13.603 0 23.619-12.791 20.3-25.983-11.589-46.054-53.277-80.149-102.928-80.149s-91.338 34.094-102.928 80.149c-3.32 13.191 6.697 25.983 20.3 25.983z" fill="url(#SVGID_3_)"/><path d="m282.546 308.622c6.96-27.476 24.643-50.673 48.328-64.898 16.279 7.078 34.846 10.901 54.559 10.901 12.213 0 23.985-1.468 35.046-4.268 6.255-1.583 12.826.919 16.344 6.328 5.599 8.609 1.08 20.176-8.874 22.706-9.86 2.507-20.118 4.136-30.639 4.834-1.085 18.035-5.745 35.109-13.645 50.539h-80.859c-13.672.001-23.617-12.889-20.26-26.142z" fill="#15c5d9"/><path d="m502 151.871c0-62.051-52.189-108.754-116.567-108.754s-116.567 46.703-116.567 108.754 52.189 102.755 116.567 102.755c64.378-.001 116.567-40.704 116.567-102.755z" fill="url(#SVGID_4_)"/><g><ellipse cx="297.548" cy="167.135" fill="#ea9cc5" rx="14.936" ry="12.003"/><ellipse cx="473.319" cy="167.135" fill="#ea9cc5" rx="14.936" ry="12.003"/><circle cx="323.155" cy="137.517" fill="#fff" r="29.618"/><ellipse cx="311.189" cy="137.517" fill="#353544" rx="17.652" ry="17.652" transform="matrix(.707 -.707 .707 .707 -6.094 260.322)"/><circle cx="447.712" cy="137.517" fill="#fff" r="29.618"/><g fill="#353544"><ellipse cx="435.747" cy="137.517" rx="17.652" ry="17.652" transform="matrix(.23 -.973 .973 .23 201.794 530.012)"/><path d="m393.024 144.711h-15.181c-3.007 0-5.658 1.976-6.506 4.862-2.672 9.09-5.742 27.748 14.097 27.748 19.838 0 16.769-18.659 14.097-27.748-.849-2.885-3.5-4.862-6.507-4.862z"/></g></g><path d="m333.628 458.883c13.603 0 23.619-12.791 20.3-25.983-11.589-46.054-53.277-80.148-102.928-80.148s-91.338 34.095-102.928 80.148c-3.32 13.192 6.697 25.983 20.3 25.983z" fill="url(#SVGID_5_)"/><path d="m367.567 275.989c0-62.051-52.189-108.754-116.567-108.754s-116.567 46.703-116.567 108.754 52.189 102.755 116.567 102.755 116.567-40.704 116.567-102.755z" fill="url(#SVGID_6_)"/><g><ellipse cx="163.115" cy="296.606" fill="#ea9cc5" rx="14.936" ry="12.003"/><ellipse cx="338.886" cy="296.606" fill="#ea9cc5" rx="14.936" ry="12.003"/><ellipse cx="188.721" cy="266.988" fill="#fff" rx="29.618" ry="29.618" transform="matrix(.383 -.924 .924 .383 -130.164 339.172)"/><ellipse cx="313.279" cy="266.988" fill="#fff" rx="29.618" ry="29.618" transform="matrix(.383 -.924 .924 .383 -53.272 454.248)"/><g fill="#353544"><g><ellipse cx="188.721" cy="266.988" rx="17.652" ry="17.652" transform="matrix(.189 -.982 .982 .189 -109.138 401.814)"/><ellipse cx="313.279" cy="266.988" rx="17.652" ry="17.652" transform="matrix(.29 -.957 .957 .29 -33.036 489.456)"/></g><path d="m251 297.548c-5.247 0-10.495-1.984-14.775-5.953-2.025-1.878-2.145-5.041-.268-7.066 1.879-2.025 5.041-2.143 7.066-.268 4.697 4.355 11.256 4.355 15.953 0 2.023-1.875 5.189-1.758 7.066.268 1.877 2.025 1.758 5.189-.268 7.066-4.279 3.969-9.527 5.953-14.774 5.953z"/></g></g></g></svg>