<svg id="Flat_1_" enable-background="new 0 0 50 50" viewBox="0 0 50 50" xmlns="http://www.w3.org/2000/svg"><g><path d="m19 49h-16c-1.1 0-2-.9-2-2v-26c0-1.1.9-2 2-2h16c1.1 0 2 .9 2 2v26c0 1.1-.9 2-2 2z" fill="#81e7fa"/><path d="m19 15h-16c-1.1 0-2-.9-2-2v-10c0-1.1.9-2 2-2h16c1.1 0 2 .9 2 2v10c0 1.1-.9 2-2 2z" fill="#f1ce85"/><path d="m47 49h-20c-1.1 0-2-.9-2-2v-18c0-1.1.9-2 2-2h20c1.1 0 2 .9 2 2v18c0 1.1-.9 2-2 2z" fill="#bb9cf1"/><path d="m47 23h-20c-1.1 0-2-.9-2-2v-18c0-1.1.9-2 2-2h20c1.1 0 2 .9 2 2v18c0 1.1-.9 2-2 2z" fill="#fb8098"/></g></svg>