<svg enable-background="new 0 0 96 96" height="96" viewBox="0 0 96 96" width="96" xmlns="http://www.w3.org/2000/svg"><g id="&#x421;&#x43B;&#x43E;&#x439;_1"/><g id="&#x421;&#x43B;&#x43E;&#x439;_2"><g><path d="m48.754 42.946s-3.015 0-3.545 0c-1.269 6.324-7.678 11.133-15.391 11.133-8.626 0-15.619-6.013-15.619-13.433h-3.141c-.267-3.391-.626-6.323-1.084-8.621l6.05-1.298v-.002c-.213-1.943-.465-3.675-.759-5.146l5.547-2.004v-.005c-.177-1.392-.375-2.654-.597-3.77l5.195-2.011c.223 1.118.422 2.386.599 3.785l-.001.001 7.12.667h-.001c.256-2.966.587-5.545 1-7.612l5.195 2.013c-.212 1.062-.723 6.786-.892 8.101l6.664 1.943c-.305 1.527-.564 3.33-.782 5.362l5.4 1.69c-.379 1.901-.689 4.237-.937 6.906z" fill="#fbbf45"/><path d="m29.772 50.132c-6.091 0-11.026-4.247-11.026-9.486h-4.546c0 7.42 6.992 13.433 15.619 13.433-.001-1.065-.047-2.727-.047-3.947z" fill="#ff9d00"/><path d="m90.533 24.538v-2.869h-37.47v2.869l-2.146 5.08h3.411l2 29.597 1.661 21.37c0 1.011.822 1.831 1.83 1.831h18.715 5.244c1.008 0 1.83-.82 1.83-1.831l1.662-21.37 1.999-29.597h3.41z" fill="#ed0345"/><path d="m29.818 54.079c-8.626 0-15.619-6.013-15.619-13.433h-6.436l3.74 38.341 2.698 2.924-.011-.021c4.133-2.085 9.615-3.355 15.628-3.355" fill="#ed0345"/><path d="m29.819 59.65c-6.471 0-12.268-2.887-16.172-7.441" fill="none" stroke="#fff" stroke-linejoin="round" stroke-miterlimit="10" stroke-width="2"/><path d="m54.327 29.618h38.352l-2.146-5.08v-2.869h-37.47v2.869l-2.147 5.08z" fill="#d7e4f0"/><path d="m80.028 29.622c1.871 7.11 2.991 16.151 2.991 25.994 0 10.219-1.206 19.573-3.208 26.801" fill="none" stroke="#fff" stroke-linejoin="round" stroke-miterlimit="10" stroke-width="2"/><path d="m65.325 64.136h-39.073c-1.758.675-3.005 2.377-3.005 4.371s1.247 3.696 3.005 4.371h39.073c1.759-.675 3.005-2.377 3.005-4.371s-1.246-3.696-3.005-4.371z" fill="#a62917"/><path d="m22.089 64.139h16.831v3.309h-16.831z" fill="#cc003f"/><path d="m40.097 72.337h23.825v.003c-4.025 0-4.025-2.498-8.048-2.498-4.024 0-4.024 2.498-8.046 2.498-3.125 0-3.82-1.51-5.865-2.182-.698.706-1.362 1.385-1.866 2.179z" fill="#03c383"/><path d="m69.771 76.852v-4.512h-47.298v4.512c0 3.073 2.49 5.564 5.564 5.564h36.171c3.074 0 5.563-2.491 5.563-5.564z" fill="#ff9d00"/><path d="m61.045 72.34v4.512c0 3.073-2.487 5.562-5.561 5.564h8.724c3.074 0 5.563-2.491 5.563-5.564v-4.512z" fill="#ef6a32"/><path d="m57.986 64.136h-31.128l12.344 9.913c2.414-5.732 9.911-9.913 18.784-9.913z" fill="#fbbf45"/><path d="m66.428 64.139h-40.601c-1.854 0-3.359-1.504-3.359-3.359l.011-.157v-1.639c0-8.856 10.587-16.038 23.648-16.038s23.648 7.181 23.648 16.038v1.639l.011.157c0 1.855-1.505 3.359-3.358 3.359z" fill="#ff9d00"/><path d="m69.775 60.622v-1.639c0-8.856-10.588-16.038-23.648-16.038-1.493 0-2.948.105-4.364.285 10.974 1.391 19.285 7.908 19.285 15.752v1.639l.012.157c0 1.855-1.505 3.359-3.359 3.359h8.728c1.854 0 3.358-1.504 3.358-3.359z" fill="#ef6a32"/></g><g><g><path d="m29.999 60.469c-.596 0-1.138-.352-1.38-.896-.337-.761.007-1.652.765-1.99.731-.324 1.659.024 1.989.76.338.761-.003 1.654-.759 1.995-.2.088-.405.131-.615.131z" fill="#fff"/></g><g><path d="m33.093 53.836c-.591 0-1.131-.349-1.376-.888-.167-.374-.178-.785-.033-1.162.145-.376.427-.674.795-.837.744-.333 1.665.027 1.991.768.163.361.175.772.031 1.15-.144.377-.427.675-.796.839-.196.086-.401.13-.612.13z" fill="#fff"/></g><g><path d="m38.37 58.976c-.594 0-1.135-.35-1.377-.892-.165-.368-.175-.779-.031-1.155.145-.377.428-.675.796-.839.738-.328 1.66.028 1.988.764.338.759-.003 1.651-.762 1.991-.194.087-.401.131-.614.131z" fill="#fff"/></g></g><g fill="none" stroke-linejoin="round" stroke-miterlimit="10" stroke-width="2"><path d="" stroke="#000"/><path d="" stroke="#000"/><g stroke="#400"><path d="m83.777 82.416h11.536"/><path d="m6.597 82.286h-5.909"/></g><g stroke="#400"><path d="m38.814 64.14h27.609c1.854 0 3.359-1.505 3.359-3.36l-.012-.156v-1.64c0-8.857-10.587-16.036-23.648-16.036-13.063 0-23.651 7.179-23.651 16.036v1.806"/><path d="m69.771 76.854c0 3.072-2.489 5.563-5.563 5.563-7.08-.001-29.106-.001-36.171-.001"/><path d="m41.963 70.158c2.044.673 2.74 2.182 5.865 2.182 4.022 0 4.022-2.498 8.046-2.498 4.022 0 4.022 2.498 8.048 2.498s4.025-2.498 8.052-2.498"/><path d="m65.325 64.137c1.759.674 3.005 2.377 3.005 4.371 0 1.146-.412 2.196-1.096 3.01"/><g><path d="m89.269 29.618-1.999 29.596-1.662 21.372c0 1.011-.822 1.83-1.83 1.83h-5.244"/><path d="m69.878 29.618h22.801l-2.146-5.08v-2.869h-37.47v2.869l-2.147 5.08h3.411l.35 4.858"/></g><path d="m72.645 21.669 2.271-12.778 12.578 1.323"/><path d="m57.986 64.137c-8.873 0-16.37 4.179-18.784 9.911l-6.422-4.993"/><path d="m24.032 53.251c-2.33-.816-4.383-2.1-6-3.716-2.369-2.369-3.801-5.452-3.801-8.823h-6.487l3.77 38.629 2.718 2.945-.01-.021c2.45-1.235 5.368-2.187 8.589-2.761"/><path d="m26.13 21.497 7.173.673"/><path d="m21.467 29.535c-.274-3.902-.663-7.255-1.175-9.825l5.235-2.026c.817 4.104 1.321 10.209 1.545 17.359"/><path d="m16.48 35.354c-.274-3.901-.662-7.254-1.175-9.823l5.588-2.02"/><path d="m11.066 40.712c-.268-3.417-.631-6.372-1.091-8.687l5.92-1.307"/><path d="m44.209 36.125c.272-3.755.652-6.984 1.149-9.479l-4.685-1.379"/><path d="m38.968 20.128c.172-1.325.362-2.53.576-3.601l-5.234-2.027c-1.153 5.784-1.68 15.537-1.68 26.591"/></g></g></g></svg>