<svg height="512pt" viewBox="0 -79 512.00104 512" width="512pt" xmlns="http://www.w3.org/2000/svg"><path d="m503.726562 201.277344c-12.53125-21.136719-30.382812-38.847656-51.617187-51.214844-21.902344-12.75-46.941406-19.492188-72.414063-19.492188-25.472656 0-50.511718 6.742188-72.414062 19.492188-21.234375 12.367188-39.082031 30.078125-51.617188 51.214844-10.871093 18.34375-11.035156 40.398437-.433593 59.003906 10.707031 18.800781 29.992187 30.019531 51.582031 30.019531h145.765625c21.59375 0 40.875-11.222656 51.585937-30.019531 10.597657-18.605469 10.433594-40.660156-.4375-59.003906zm0 0" fill="#19cffc"/><path d="m452.113281 150.046875c-21.898437-12.753906-46.941406-19.496094-72.414062-19.496094 0 0 0 0-.003907 0v159.734375h72.886719c21.59375 0 40.875-11.222656 51.582031-30.019531 10.601563-18.605469 10.4375-40.664063-.433593-59.003906-12.53125-21.140625-30.382813-38.851563-51.617188-51.214844zm0 0" fill="#4ab8f7"/><path d="m436.917969 23.703125c-15.285157-15.285156-35.605469-23.703125-57.222657-23.703125-21.617187 0-41.9375 8.417969-57.21875 23.703125-15.285156 15.285156-23.703124 35.605469-23.703124 57.21875 0 21.617187 8.417968 41.9375 23.703124 57.222656 15.28125 15.285157 35.601563 23.703125 57.21875 23.703125 21.617188 0 41.9375-8.417968 57.222657-23.703125 15.285156-15.285156 23.703125-35.605469 23.703125-57.222656 0-21.613281-8.417969-41.933594-23.703125-57.21875zm0 0" fill="#ffd2bf"/><path d="m436.921875 23.683594c-15.777344-15.777344-36.5-23.6640628-57.226563-23.6640628v161.7695308h.003907c20.722656 0 41.445312-7.886718 57.222656-23.664062 31.550781-31.550781 31.550781-82.890625 0-114.441406zm0 0" fill="#ffb89c"/><path d="m256.332031 201.277344c-12.53125-21.136719-30.382812-38.847656-51.617187-51.214844-21.898438-12.75-46.941406-19.492188-72.414063-19.492188-25.472656 0-50.511719 6.742188-72.414062 19.492188-21.234375 12.367188-39.082031 30.078125-51.617188 51.214844-10.871093 18.339844-11.035156 40.398437-.433593 59.003906 10.707031 18.796875 29.992187 30.019531 51.582031 30.019531h145.769531c21.589844 0 40.871094-11.21875 51.582031-30.019531 10.597657-18.601562 10.433594-40.660156-.4375-59.003906zm0 0" fill="#27488f"/><path d="m204.71875 150.046875c-21.898438-12.753906-46.941406-19.496094-72.414062-19.496094 0 0 0 0-.003907 0v159.734375h72.886719c21.59375 0 40.875-11.222656 51.582031-30.019531 10.601563-18.605469 10.4375-40.664063-.433593-59.003906-12.53125-21.140625-30.382813-38.851563-51.617188-51.214844zm0 0" fill="#12254c"/><path d="m189.523438 23.703125c-15.285157-15.285156-35.605469-23.703125-57.222657-23.703125-21.613281 0-41.9375 8.417969-57.21875 23.703125-15.285156 15.285156-23.703125 35.605469-23.703125 57.21875 0 21.617187 8.417969 41.9375 23.703125 57.222656 15.28125 15.285157 35.605469 23.703125 57.21875 23.703125 21.617188 0 41.9375-8.417968 57.222657-23.703125 15.285156-15.285156 23.703124-35.605469 23.703124-57.222656 0-21.613281-8.417968-41.933594-23.703124-57.21875zm0 0" fill="#ffd2bf"/><path d="m189.527344 23.683594c-15.777344-15.777344-36.5-23.6640628-57.226563-23.6640628v161.7695308h.003907c20.722656 0 41.445312-7.886718 57.222656-23.664062 31.550781-31.550781 31.550781-82.890625 0-114.441406zm0 0" fill="#ffb89c"/><path d="m380.027344 265.507812c-12.53125-21.140624-30.378906-38.851562-51.613282-51.214843-21.902343-12.753907-46.941406-19.492188-72.414062-19.492188s-50.515625 6.738281-72.414062 19.492188c-21.234376 12.363281-39.085938 30.074219-51.617188 51.214843-10.871094 18.339844-11.035156 40.398438-.433594 59.003907 10.707032 18.796875 29.988282 30.019531 51.582032 30.019531h145.765624c21.589844 0 40.875-11.222656 51.582032-30.019531 10.597656-18.605469 10.4375-40.664063-.4375-59.003907zm0 0" fill="#fe6a16"/><path d="m328.414062 214.292969c-21.902343-12.753907-46.941406-19.496094-72.414062-19.496094h-.003906v159.734375h72.886718c21.589844 0 40.875-11.222656 51.582032-30.019531 10.597656-18.605469 10.4375-40.664063-.4375-59.003907-12.53125-21.140624-30.378906-38.851562-51.613282-51.214843zm0 0" fill="#ff432e"/><path d="m313.222656 87.929688c-31.554687-31.550782-82.890625-31.550782-114.445312 0-31.550782 31.550781-31.550782 82.890624 0 114.441406 15.777344 15.777344 36.5 23.664062 57.222656 23.664062s41.445312-7.886718 57.222656-23.664062c31.550782-31.550782 31.550782-82.890625 0-114.441406zm0 0" fill="#ffd2bf"/><path d="m313.222656 87.929688c-15.777344-15.777344-36.503906-23.664063-57.226562-23.664063v161.769531h.003906c20.722656 0 41.445312-7.886718 57.222656-23.664062 31.550782-31.550782 31.550782-82.890625 0-114.441406zm0 0" fill="#ffb89c"/></svg>