<svg id="Capa_1" enable-background="new 0 0 502 502" height="512" viewBox="0 0 502 502" width="512" xmlns="http://www.w3.org/2000/svg" xmlns:xlink="http://www.w3.org/1999/xlink"><linearGradient id="SVGID_1_" gradientUnits="userSpaceOnUse" x1="177.399" x2="177.399" y1="437.281" y2="-67.921"><stop offset="0" stop-color="#d4dbdb"/><stop offset="1" stop-color="#f3f3f3"/></linearGradient><linearGradient id="lg1"><stop offset="0" stop-color="#4e5660"/><stop offset="1" stop-color="#64768d"/></linearGradient><linearGradient id="SVGID_2_" gradientUnits="userSpaceOnUse" x1="104.583" x2="104.583" xlink:href="#lg1" y1="250.809" y2="184.138"/><linearGradient id="SVGID_3_" gradientUnits="userSpaceOnUse" x1="104.583" x2="104.583" xlink:href="#lg1" y1="354.753" y2="288.081"/><linearGradient id="SVGID_4_" gradientUnits="userSpaceOnUse" x1="359.274" x2="359.274" y1="463.996" y2="233.593"><stop offset="0" stop-color="#f4d952"/><stop offset="1" stop-color="#f9edaf"/></linearGradient><g><g><path d="m9.271 438.635c0 24.058 27.296 37.953 46.749 23.798l15.715-11.435c13.356-9.718 30.897-11.529 45.956-4.744l40.814 18.39c12.015 5.413 25.774 5.413 37.789 0l40.814-18.39c15.059-6.785 32.6-4.975 45.956 4.744l15.715 11.435c19.453 14.155 46.749.259 46.749-23.798v-408.565c0-24.058-27.296-37.953-46.749-23.798l-15.715 11.435c-13.355 9.718-30.897 11.529-45.956 4.743l-40.815-18.39c-12.014-5.413-25.774-5.413-37.789 0l-40.814 18.39c-15.059 6.785-32.6 4.975-45.956-4.744l-15.714-11.434c-19.453-14.155-46.749-.26-46.749 23.798z" fill="url(#SVGID_1_)"/><path d="m62.883 438.835c4.579 6.292 12.774 8.848 20.08 6.169 11.14-4.083 23.61-3.759 34.728 1.25l40.813 18.389c12.015 5.413 25.774 5.413 37.789 0l40.814-18.39c3.649-1.644 7.446-2.773 11.292-3.418-11.552-17.206-19.206-37.247-21.696-58.861-1.014-8.805-8.507-15.43-17.371-15.43-10.523 0-18.592 9.211-17.369 19.663 1.468 12.54 4.321 24.664 8.395 36.216-18.292 7.936-18.964 9.281-22.96 9.281-4.142 0-2.572-.445-45.33-19.36-10.53-4.745-21.723-7.15-33.268-7.15-9.616 0-18.996 1.668-27.831 4.904-10.903 3.993-14.918 17.349-8.086 26.737z" fill="#bdc3c9"/><path d="m114.862 252.385h-20.56c-13.475 0-24.399-10.924-24.399-24.399v-20.559c0-13.475 10.924-24.399 24.399-24.399h20.56c13.475 0 24.399 10.924 24.399 24.399v20.559c0 13.475-10.923 24.399-24.399 24.399z" fill="url(#SVGID_2_)"/><path d="m252.594 229.206h-68.644c-6.352 0-11.5-5.148-11.5-11.5s5.148-11.5 11.5-11.5h68.644c6.352 0 11.5 5.148 11.5 11.5s-5.149 11.5-11.5 11.5z" fill="#424e5e"/><path d="m114.862 356.328h-20.56c-13.475 0-24.399-10.924-24.399-24.399v-20.559c0-13.475 10.924-24.399 24.399-24.399h20.56c13.475 0 24.399 10.924 24.399 24.399v20.559c0 13.476-10.923 24.399-24.399 24.399z" fill="url(#SVGID_3_)"/><path d="m252.594 333.149h-68.644c-6.352 0-11.5-5.148-11.5-11.5s5.148-11.5 11.5-11.5h68.644c6.352 0 11.5 5.148 11.5 11.5s-5.149 11.5-11.5 11.5z" fill="#424e5e"/><circle cx="359.274" cy="368.546" fill="url(#SVGID_4_)" r="133.454"/><g><ellipse cx="89.513" cy="132.279" fill="#eaadcd" rx="14.936" ry="12.003"/><ellipse cx="265.284" cy="132.279" fill="#eaadcd" rx="14.936" ry="12.003"/><circle cx="115.12" cy="102.661" fill="#fff" r="29.618"/><circle cx="239.677" cy="102.661" fill="#fff" r="29.618"/><path d="m124.903 113.092c-2.647.001-5.214-1.404-6.579-3.888-.94-1.71-2.554-1.896-3.204-1.896s-2.264.186-3.204 1.896c-1.995 3.629-6.555 4.953-10.186 2.959-3.63-1.996-4.954-6.556-2.959-10.186 3.278-5.964 9.543-9.669 16.349-9.669s13.07 3.705 16.349 9.669c1.995 3.63.671 8.189-2.959 10.186-1.147.63-2.385.929-3.607.929z" fill="#3b3b44"/><path d="m249.461 113.092c-2.647.001-5.214-1.404-6.579-3.888-.94-1.711-2.555-1.896-3.205-1.896-.65.001-2.263.186-3.203 1.895-1.995 3.631-6.558 4.954-10.185 2.96-3.63-1.995-4.955-6.555-2.96-10.185 3.277-5.964 9.542-9.669 16.348-9.67 6.806 0 13.07 3.705 16.35 9.669 1.995 3.63.671 8.189-2.959 10.186-1.147.63-2.385.929-3.607.929z" fill="#3b3b44"/><g><path d="m189.07 142.466h-23.342c-6.508 0-11.784-5.276-11.784-11.784 0-6.508 5.276-11.784 11.784-11.784h23.342c6.508 0 11.784 5.276 11.784 11.784 0 6.508-5.276 11.784-11.784 11.784z" fill="#3b3b44"/></g></g></g><path d="m376.993 359.076c-2.826-.999-5.717-2.046-8.601-3.136v-46.27c7.264 1.784 11.554 5.474 11.848 5.732 4.084 3.726 10.408 3.43 14.127-.649 3.722-4.081 3.431-10.406-.649-14.127-.56-.517-9.947-8.979-25.325-11.327v-9.378c0-5.522-4.478-10-10-10s-10 4.478-10 10v10.145c-1.427.317-2.874.679-4.353 1.125-30.004 9.04-37.524 49.614-15.962 66.523 5.151 4.04 11.555 7.742 20.314 11.647v58.784c-7.489-.575-12.736-2.44-21.276-8.027-4.626-3.027-10.821-1.727-13.843 2.894-3.023 4.622-1.728 10.82 2.894 13.843 12.568 8.221 21.164 10.697 32.226 11.335v10.505c0 5.522 4.478 10 10 10s10-4.478 10-10v-11.349c43.649-8.92 55.089-71.836 8.6-88.27zm-36.572-17.099c-8.406-6.596-5.409-25.913 7.972-31.143v36.261c-2.997-1.637-5.707-3.342-7.972-5.118zm27.972 84.638v-49.374c.645.231 1.272.459 1.935.693 25.612 9.053 18.815 41.089-1.935 48.681z" fill="#a37460"/></g></svg>